<svg xmlns="http://www.w3.org/2000/svg" xmlns:xlink="http://www.w3.org/1999/xlink" width="1080" zoomAndPan="magnify" viewBox="0 0 810 809.999993" height="1080" preserveAspectRatio="xMidYMid meet" version="1.0"><defs><clipPath id="30a4c80c8e"><path d="M 244 276.871094 L 567 276.871094 L 567 533 L 244 533 Z M 244 276.871094 " clip-rule="nonzero"/></clipPath><clipPath id="a2711b0d8c"><path d="M 480 276.871094 L 567 276.871094 L 567 406 L 480 406 Z M 480 276.871094 " clip-rule="nonzero"/></clipPath></defs><g clip-path="url(#30a4c80c8e)"><path fill="#c2c0c0" d="M 566.707031 279.523438 C 566.707031 278.234375 565.347656 276.871094 565.347656 276.871094 C 564.058594 276.871094 564.058594 276.871094 562.699219 278.234375 C 535.847656 319.832031 507.710938 361.429688 480.859375 404.390625 L 247.300781 404.390625 C 244.652344 404.390625 243.292969 408.402344 246.015625 409.761719 C 342.601562 445.917969 483.507812 500.90625 561.335938 531.765625 C 563.984375 533.125 566.707031 530.40625 566.707031 529.117188 Z M 566.707031 279.523438 " fill-opacity="1" fill-rule="nonzero"/></g><g clip-path="url(#a2711b0d8c)"><path fill="#ededed" d="M 566.707031 279.523438 C 566.707031 278.234375 565.347656 276.871094 565.347656 276.871094 C 564.058594 276.871094 564.058594 276.871094 562.699219 278.234375 C 535.847656 319.832031 507.710938 361.429688 480.859375 404.390625 L 566.707031 405.273438 Z M 566.707031 279.523438 " fill-opacity="1" fill-rule="nonzero"/></g></svg>