<?xml version="1.0" encoding="UTF-8"?>
<svg id="Layer_2" data-name="Layer 2" xmlns="http://www.w3.org/2000/svg" viewBox="0 0 272.2 167.71">
  <defs>
    <style>
      .cls-1 {
        fill: #181228;
      }

      .cls-2 {
        fill: #ff337d;
      }
    </style>
  </defs>
  <g id="Layer_1-2" data-name="Layer 1">
    <g>
      <path class="cls-2" d="M211.71,79.39c-.09-15.02-.17-30.03-.26-45.04-.03-4.83-5.37-7.69-9.43-5.07-12.57,8.11-25.18,15.89-37.84,23.77-9.42-18.01-18.79-35.53-28.08-53.04-9.27,17.45-18.6,34.92-27.97,52.87-12.7-7.9-25.34-15.7-37.97-23.84-4.06-2.62-9.4.24-9.42,5.07-.08,15.09-.16,30.2-.25,45.29-20.29-5.4-40.43-10.57-60.49-16.49,4.08,10.42,8.14,20.49,12.18,30.28,7.08-.95,15.06.04,24.07,3.41-2.78,4.28-5.56,8.64-8.31,13.09,4.08.11,8.16.22,12.26.37-3.54,8.57-7.34,15.86-11.31,22.07,2.97,6.71,5.95,13.28,8.94,19.77,64.31-21.05,132.23-21.05,196.54,0,2.99-6.49,5.97-13.06,8.96-19.77-3.99-6.21-7.81-13.5-11.33-22.07,4.08-.15,8.18-.26,12.26-.37-2.76-4.45-5.53-8.81-8.31-13.09,9.01-3.36,16.99-4.36,24.05-3.41,4.06-9.79,8.12-19.86,12.2-30.28-20.05,5.92-40.19,11.09-60.49,16.49ZM201.49,42.43c.09,13.22.15,26.46.24,39.67-6.6,1.78-13.2,3.62-19.79,5.53-4.32-8.57-8.62-16.99-12.91-25.28,10.87-6.62,21.68-13.17,32.47-19.92ZM110.51,71.79c7.86-3.95,13.52-2.97,17.51-.41-1.22-4.58-.39-10.29,5.79-16.54l2.28,3.75,2.28-3.75c6.19,6.25,7.01,11.96,5.79,16.54,3.99-2.56,9.66-3.54,17.51.41l-2.86,3.32,4.28,1c-4.04,7.83-9.2,10.37-13.93,10.63,3.67,2.99,6.36,8.1,5.04,16.78l-4.06-1.69.37,4.36c-8.68-1.41-12.7-5.53-14.41-9.96-1.71,4.43-5.73,8.55-14.41,9.96l.37-4.36-4.06,1.69c-1.32-8.68,1.37-13.78,5.03-16.78-4.73-.26-9.9-2.8-13.93-10.63l4.28-1-2.86-3.32ZM70.69,42.21c10.83,6.75,21.68,13.33,32.58,19.99-4.32,8.33-8.66,16.8-13,25.44-6.62-1.91-13.22-3.75-19.79-5.53.09-13.3.15-26.61.22-39.89ZM222.91,137.64c-57.1-15.19-116.5-15.19-173.6,0-1.52-2.89-3.04-5.82-4.54-8.75,60.05-15.65,122.62-15.65,182.67,0-1.52,2.95-3.04,5.86-4.54,8.75Z"/>
      <rect class="cls-2" x="136.1" y="96.59" width="0" height="0"/>
      <rect class="cls-2" x="136.1" y="96.59" width="0" height="0"/>
      <rect class="cls-2" x="136.1" y="96.59" width="0" height="0"/>
      <rect class="cls-2" x="136.1" y="96.59" width="0" height="0"/>
      <path class="cls-1" d="M143.38,82.91c.16.66.76,1.14,1.47,1.14.84,0,1.52-.68,1.52-1.52s-.68-1.52-1.52-1.52c-.71,0-1.3.49-1.47,1.14h-4.7c-.03-.21-.08-.41-.16-.6l4.07-2.35c.47.48,1.24.61,1.85.25.73-.42.98-1.35.56-2.07-.42-.73-1.35-.98-2.08-.55-.61.35-.88,1.07-.7,1.72l-4.07,2.35c-.13-.16-.27-.31-.44-.44l2.35-4.07c.65.19,1.37-.09,1.73-.7.42-.73.17-1.65-.55-2.07-.73-.42-1.65-.17-2.07.55-.36.62-.23,1.37.25,1.85l-2.35,4.07c-.19-.08-.39-.13-.6-.16v-4.7c.66-.17,1.14-.76,1.14-1.47,0-.84-.68-1.52-1.52-1.52s-1.52.68-1.52,1.52c0,.71.48,1.3,1.14,1.47v4.71c-.21.03-.41.08-.6.16l-2.35-4.07c.49-.47.61-1.23.25-1.85-.42-.73-1.34-.98-2.07-.55-.72.42-.97,1.34-.55,2.07.36.62,1.07.89,1.72.7l2.35,4.07c-.16.13-.31.27-.44.44l-4.07-2.35c.18-.65-.09-1.37-.7-1.72-.73-.42-1.65-.17-2.08.55-.42.73-.17,1.65.56,2.08.61.35,1.37.23,1.84-.26l4.07,2.35c-.08.19-.13.39-.16.6h-4.7c-.16-.66-.76-1.14-1.47-1.14-.84,0-1.52.68-1.52,1.52s.68,1.52,1.52,1.52c.71,0,1.3-.49,1.47-1.14h4.7c.03.21.08.41.16.6l-4.07,2.35c-.47-.48-1.24-.61-1.85-.25-.73.42-.98,1.35-.56,2.07.42.73,1.35.98,2.08.55.61-.35.89-1.07.7-1.72l4.07-2.35c.13.16.27.31.44.44l-2.35,4.07c-.65-.19-1.37.09-1.73.7-.42.73-.17,1.65.55,2.07.73.42,1.65.17,2.07-.55.36-.62.23-1.37-.25-1.85l2.35-4.07c.19.08.39.13.6.16v4.7c-.66.17-1.14.76-1.14,1.47,0,.84.68,1.52,1.51,1.52s1.52-.68,1.52-1.52c0-.71-.49-1.3-1.14-1.47v-4.71c.21-.03.41-.08.6-.16l2.35,4.07c-.49.47-.61,1.23-.25,1.85.42.73,1.34.98,2.07.55.72-.42.97-1.34.55-2.07-.36-.62-1.07-.89-1.72-.7l-2.35-4.07c.16-.13.31-.27.44-.44l4.07,2.35c-.18.65.09,1.37.7,1.72.73.42,1.66.17,2.08-.55.42-.73.17-1.65-.56-2.08-.61-.35-1.37-.23-1.84.26l-4.07-2.35c.08-.19.13-.39.16-.6h4.7ZM136.1,82.55h0s0,0,0,0h0s0,0,0,0Z"/>
      <path class="cls-2" d="M213.03,157.43c.06-.25-26.33,10.05-76.93,10.28-50.6-.23-76.99-10.53-76.93-10.28,0,.16,43.27,2.79,76.93,2.44,33.66.35,76.93-2.28,76.93-2.44Z"/>
    </g>
  </g>
</svg>