<svg xmlns="http://www.w3.org/2000/svg" xmlns:xlink="http://www.w3.org/1999/xlink" width="1080" zoomAndPan="magnify" viewBox="0 0 810 809.999993" height="1080" preserveAspectRatio="xMidYMid meet" version="1.0"><defs><clipPath id="342f2cbce7"><path d="M 52 123.679688 L 761 123.679688 L 761 685 L 52 685 Z M 52 123.679688 " clip-rule="nonzero"/></clipPath><clipPath id="be7f6caa26"><path d="M 571 123.679688 L 761 123.679688 L 761 406 L 571 406 Z M 571 123.679688 " clip-rule="nonzero"/></clipPath></defs><g clip-path="url(#342f2cbce7)"><path fill="#c2c0c0" d="M 760.039062 129.496094 C 760.039062 126.667969 757.050781 123.679688 757.050781 123.679688 C 754.222656 123.679688 754.222656 123.679688 751.234375 126.667969 C 692.285156 218.003906 630.503906 309.335938 571.554688 403.660156 L 58.757812 403.660156 C 52.941406 403.660156 49.953125 412.460938 55.929688 415.449219 C 267.996094 494.835938 577.371094 615.570312 748.25 683.324219 C 754.066406 686.308594 760.039062 680.335938 760.039062 677.507812 Z M 760.039062 129.496094 " fill-opacity="1" fill-rule="nonzero"/></g><g clip-path="url(#be7f6caa26)"><path fill="#ededed" d="M 760.039062 129.496094 C 760.039062 126.667969 757.050781 123.679688 757.050781 123.679688 C 754.222656 123.679688 754.222656 123.679688 751.234375 126.667969 C 692.285156 218.003906 630.503906 309.335938 571.554688 403.660156 L 760.039062 405.59375 Z M 760.039062 129.496094 " fill-opacity="1" fill-rule="nonzero"/></g></svg>